# xmcd
#
# Track frame offsets: 
#        150
#        20325
#        30750
#        48675
#        64162
#        81300
#        96150
#        114300
#        139950
#        159750
#        175012
#        194812
#
# Disc length: 2856 seconds
#
# Revision: 0
# Processed by: cddbd v1.5.1PL0 Copyright (c) Steve Scherf et al.
# Submitted via: ExactAudioCopy v0.95a5
#
DISCID=990b260c
DTITLE=Bobby Sweet - Hope's Cafe
DYEAR=1998
DGENRE=Folk
TTITLE0=Hope's Cafe
TTITLE1=Better Off Gone
TTITLE2=Hard To Say Good-bye
TTITLE3=More Than She Takes
TTITLE4=What I Did Then
TTITLE5=Someone to Hold
TTITLE6=This Ol' Pony
TTITLE7=The Call of the Wild
TTITLE8=Where the Flowers Don't Grow
TTITLE9=Finally Comin' Home
TTITLE10=Love Will Do the Rest
TTITLE11=Because I Do
EXTD=
EXTT0=
EXTT1=
EXTT2=
EXTT3=
EXTT4=
EXTT5=
EXTT6=
EXTT7=
EXTT8=
EXTT9=
EXTT10=
EXTT11=
PLAYORDER=
